<svg xmlns="http://www.w3.org/2000/svg" width="400" height="150">
  <g stroke-width="1.6" transform="matrix(1.25 0 0 -1.25 0 1000)">
    <path fill="#6f4a9e" stroke="#fff" stroke-opacity=".5" d="M57.04 698.98h10.43v16.04H57.04v-16.04zm-32.5 11.57H35v10.88H24.54v-10.88zm17.06 27.27h10.43v-47.45H41.6v47.45zm0 56.03h10.43V746.4H41.6v47.45zm31.36 5.65H83.4V680.32H72.96V799.5zm-15.68-26H67.7v-49.43H57.3v49.42zm-32.48 6.7h10.4v-33.47H24.8v33.48zM6.87 683.56H17.3v68.26H6.87v-68.26zm0 82.9H17.3v22.17H6.87v-22.16z"/>
    <g stroke="#fff" stroke-opacity=".5" stroke-width="1.43" clip-path="url(#a)" transform="matrix(1.12 0 0 1.12 -305.44 293.67)">
      <path fill="#6f4a9e" d="M357.04 366.3v44.5c0 1.45.5 2.68 1.52 3.7 1 1 2.24 1.5 3.68 1.5h5.06v-49.7h-10.26zm23.78 24.86c0-5.6 1.2-9.83 3.62-12.72 2.4-2.98 5.82-4.48 10.25-4.48 4.3 0 7.7 1.5 10.2 4.48 2.5 3.08 3.73 7.32 3.73 12.72s-1.25 9.68-3.76 12.85c-2.5 3-5.9 4.5-10.26 4.5-4.44 0-7.86-1.5-10.26-4.5-2.4-2.9-3.6-7.2-3.6-12.8m-10.26 0c0 8.1 2.1 14.5 6.35 19.2 4.53 4.77 10.45 7.1 17.77 7.1 7.22 0 13.14-2.33 17.76-7.1 4.33-4.8 6.5-11.2 6.5-19.2s-2.17-14.32-6.5-19.1c-4.44-4.6-10.36-6.9-17.78-6.9-7.52 0-13.44 2.3-17.78 6.95-4.26 4.6-6.37 10.97-6.37 19.07m54.45-24.87v44.5c0 1.43.5 2.66 1.5 3.7 1.02 1 2.25 1.53 3.7 1.63h5.5l20.2-34.24v34.26H466v-49.9h-10.53l-20.37 34.25V366.3h-10.12zm46.75 15.16v4.2c0 2.6 1.3 3.9 3.9 3.9h16.03v-8.1h-19.9zm24.5-15.2l15.6 25.44-15.6 24.28H508l10.1-17.3 8.68 14.87c.98 1.63 2.47 2.45 4.5 2.45h8.8l-15.6-24.27 15.6-25.42h-11.7l-10.24 17.2-10.13-17.2h-11.8zm-201.6 22.84h9.3v9.7h-9.3v-9.7z"/>
    </g>
    <circle cx="309.74" cy="-767.37" r="5.91" fill="none" stroke="#fff" stroke-opacity=".5" transform="scale(1 -1)" stroke-linejoin="round"/>
    <text x="306.06" y="-763.5" fill="#fff" fill-opacity=".5" transform="scale(1 -1)" style="line-height:125%;-inkscape-font-specification:'Source Code Pro, Normal';text-align:start" font-size="12" font-family="Source Code Pro" letter-spacing="0" word-spacing="0">R</text>
  </g>
</svg>
