<?xml version="1.0" encoding="UTF-8" standalone="no"?>
<svg
   xmlns:dc="http://purl.org/dc/elements/1.1/"
   xmlns:cc="http://creativecommons.org/ns#"
   xmlns:rdf="http://www.w3.org/1999/02/22-rdf-syntax-ns#"
   xmlns:svg="http://www.w3.org/2000/svg"
   xmlns="http://www.w3.org/2000/svg"
   xmlns:sodipodi="http://sodipodi.sourceforge.net/DTD/sodipodi-0.dtd"
   xmlns:inkscape="http://www.inkscape.org/namespaces/inkscape"
   viewBox="0 0 400 150"
   height="150"
   width="400"
   xml:space="preserve"
   version="1.1"
   id="svg2"
   inkscape:version="0.91 r13725"
   sodipodi:docname="ionx_logo_test.svg"><sodipodi:namedview
     pagecolor="#ffffff"
     bordercolor="#666666"
     borderopacity="1"
     objecttolerance="10"
     gridtolerance="10"
     guidetolerance="10"
     inkscape:pageopacity="0"
     inkscape:pageshadow="2"
     inkscape:window-width="1440"
     inkscape:window-height="851"
     id="namedview37"
     showgrid="false"
     inkscape:zoom="8.7681241"
     inkscape:cx="382.47917"
     inkscape:cy="94.354839"
     inkscape:window-x="0"
     inkscape:window-y="1"
     inkscape:window-maximized="1"
     inkscape:current-layer="g10" /><metadata
     id="metadata8"><rdf:RDF><cc:Work
         rdf:about=""><dc:format>image/svg+xml</dc:format><dc:type
           rdf:resource="http://purl.org/dc/dcmitype/StillImage" /><dc:title /></cc:Work></rdf:RDF></metadata><defs
     id="defs6"><clipPath
       id="clipPath34"
       clipPathUnits="userSpaceOnUse"><path
         id="path36"
         d="M 0,800 800,800 800,0 0,0 0,800 Z" /></clipPath></defs><g
     transform="matrix(1.25,0,0,-1.25,0,1000)"
     id="g10"
     style="stroke-width:1.6;stroke-miterlimit:4;stroke-dasharray:none"><path
       id="path12"
       style="fill:#6f4a9e;fill-opacity:1;fill-rule:nonzero;stroke:#ffffff;stroke-width:1.6;stroke-miterlimit:4;stroke-dasharray:none;stroke-opacity:1"
       d="M 57.037829,698.97599 67.473775,698.97599 67.473775,715.02199 57.037829,715.02199 57.037829,698.97599 Z" /><path
       id="path14"
       style="fill:#6f4a9e;fill-opacity:1;fill-rule:nonzero;stroke:#ffffff;stroke-width:1.6;stroke-miterlimit:4;stroke-dasharray:none;stroke-opacity:1"
       d="M 24.551521,710.55344 34.987467,710.55344 34.987467,721.42628 24.551521,721.42628 24.551521,710.55344 Z" /><path
       id="path16"
       style="fill:#6f4a9e;fill-opacity:1;fill-rule:nonzero;stroke:#ffffff;stroke-width:1.6;stroke-miterlimit:4;stroke-dasharray:none;stroke-opacity:1"
       d="M 41.59227,737.8229 52.028216,737.8229 52.028216,690.36824 41.59227,690.36824 41.59227,737.8229 Z" /><path
       id="path18"
       style="fill:#6f4a9e;fill-opacity:1;fill-rule:nonzero;stroke:#ffffff;stroke-width:1.6;stroke-miterlimit:4;stroke-dasharray:none;stroke-opacity:1"
       d="M 41.59227,793.85282 52.028216,793.85282 52.028216,746.39816 41.59227,746.39816 41.59227,793.85282 Z" /><path
       id="path20"
       style="fill:#6f4a9e;fill-opacity:1;fill-rule:nonzero;stroke:#ffffff;stroke-width:1.6;stroke-miterlimit:4;stroke-dasharray:none;stroke-opacity:1"
       d="M 72.959482,799.48527 83.395428,799.48527 83.395428,680.33333 72.959482,680.33333 72.959482,799.48527 Z" /><path
       id="path22"
       style="fill:#6f4a9e;fill-opacity:1;fill-rule:nonzero;stroke:#ffffff;stroke-width:1.6;stroke-miterlimit:4;stroke-dasharray:none;stroke-opacity:1"
       d="M 57.275316,773.48838 67.711262,773.48838 67.711262,724.07447 57.275316,724.07447 57.275316,773.48838 Z" /><path
       id="path24"
       style="fill:#6f4a9e;fill-opacity:1;fill-rule:nonzero;stroke:#ffffff;stroke-width:1.6;stroke-miterlimit:4;stroke-dasharray:none;stroke-opacity:1"
       d="M 24.789007,780.20968 35.224954,780.20968 35.224954,746.72639 24.789007,746.72639 24.789007,780.20968 Z" /><path
       id="path26"
       style="fill:#6f4a9e;fill-opacity:1;fill-rule:nonzero;stroke:#ffffff;stroke-width:1.6;stroke-miterlimit:4;stroke-dasharray:none;stroke-opacity:1"
       d="M 6.8655267,683.55844 17.301473,683.55844 17.301473,751.81664 6.8655267,751.81664 6.8655267,683.55844 Z" /><path
       id="path28"
       style="fill:#6f4a9e;fill-opacity:1;fill-rule:nonzero;stroke:#ffffff;stroke-width:1.6;stroke-miterlimit:4;stroke-dasharray:none;stroke-opacity:1"
       d="M 6.8655267,766.47021 17.301473,766.47021 17.301473,788.63485 6.8655267,788.63485 6.8655267,766.47021 Z" /><g
       transform="matrix(1.1202176,0,0,1.1202176,-305.43992,293.6712)"
       id="g30"
       style="stroke-width:1.42829393;stroke-miterlimit:4;stroke-dasharray:none;stroke:#ffffff;stroke-opacity:1"><g
         clip-path="url(#clipPath34)"
         id="g32"
         style="stroke-width:1.42829393;stroke-miterlimit:4;stroke-dasharray:none;stroke:#ffffff;stroke-opacity:1"><g
           transform="translate(357.0427,366.3062)"
           id="g38"
           style="stroke-width:1.42829393;stroke-miterlimit:4;stroke-dasharray:none;stroke:#ffffff;stroke-opacity:1"><path
             id="path40"
             style="fill:#6f4a9e;fill-opacity:1;fill-rule:nonzero;stroke:#ffffff;stroke-width:1.42829393;stroke-miterlimit:4;stroke-dasharray:none;stroke-opacity:1"
             d="M 0,0 0,44.498 C 0,45.943 0.506,47.171 1.517,48.182 2.528,49.194 3.756,49.699 5.201,49.699 L 10.258,49.699 10.258,0 0,0 Z" /></g><g
           transform="translate(380.8239,391.1559)"
           id="g42"
           style="stroke-width:1.42829393;stroke-miterlimit:4;stroke-dasharray:none;stroke:#ffffff;stroke-opacity:1"><path
             id="path44"
             style="fill:#6f4a9e;fill-opacity:1;fill-rule:nonzero;stroke:#ffffff;stroke-width:1.42829393;stroke-miterlimit:4;stroke-dasharray:none;stroke-opacity:1"
             d="M 0,0 C 0,-5.586 1.204,-9.824 3.612,-12.714 6.02,-15.7 9.439,-17.193 13.87,-17.193 18.204,-17.193 21.623,-15.7 24.127,-12.714 26.632,-9.632 27.884,-5.394 27.884,0 27.884,5.394 26.632,9.68 24.127,12.858 21.623,15.844 18.204,17.337 13.87,17.337 9.439,17.337 6.02,15.844 3.612,12.858 1.204,9.872 0,5.586 0,0 M -10.258,0 C -10.258,8.091 -8.139,14.496 -3.901,19.215 0.626,23.935 6.549,26.294 13.87,26.294 21.093,26.294 27.017,23.935 31.64,19.215 35.974,14.399 38.141,7.994 38.141,0 38.141,-7.994 35.974,-14.351 31.64,-19.071 27.209,-23.694 21.286,-26.005 13.87,-26.005 6.357,-26.005 0.433,-23.694 -3.901,-19.071 -8.139,-14.448 -10.258,-8.091 -10.258,0" /></g><g
           transform="translate(424.976,366.3062)"
           id="g46"
           style="stroke-width:1.42829393;stroke-miterlimit:4;stroke-dasharray:none;stroke:#ffffff;stroke-opacity:1"><path
             id="path48"
             style="fill:#6f4a9e;fill-opacity:1;fill-rule:nonzero;stroke:#ffffff;stroke-width:1.42829393;stroke-miterlimit:4;stroke-dasharray:none;stroke-opacity:1"
             d="M 0,0 0,44.498 C 0,45.943 0.506,47.171 1.517,48.182 2.528,49.194 3.756,49.747 5.201,49.844 L 10.691,49.844 30.918,15.603 30.918,49.844 41.031,49.844 41.031,0 30.484,0 10.113,34.241 10.113,0 0,0 Z" /></g><g
           transform="translate(471.7256,381.476)"
           id="g50"
           style="stroke-width:1.42829393;stroke-miterlimit:4;stroke-dasharray:none;stroke:#ffffff;stroke-opacity:1"><path
             id="path52"
             style="fill:#6f4a9e;fill-opacity:1;fill-rule:nonzero;stroke:#ffffff;stroke-width:1.42829393;stroke-miterlimit:4;stroke-dasharray:none;stroke-opacity:1"
             d="M 0,0 0,4.19 C 0,6.79 1.3,8.091 3.901,8.091 L 19.938,8.091 19.938,0 0,0 Z" /></g><g
           transform="translate(496.2292,366.3062)"
           id="g54"
           style="stroke-width:1.42829393;stroke-miterlimit:4;stroke-dasharray:none;stroke:#ffffff;stroke-opacity:1"><path
             id="path56"
             style="fill:#6f4a9e;fill-opacity:1;fill-rule:nonzero;stroke:#ffffff;stroke-width:1.42829393;stroke-miterlimit:4;stroke-dasharray:none;stroke-opacity:1"
             d="M 0,0 15.603,25.428 0,49.699 11.847,49.699 21.96,32.362 30.629,47.243 C 31.592,48.881 33.085,49.699 35.107,49.699 L 43.92,49.699 28.317,25.428 43.92,0 32.218,0 21.96,17.193 11.847,0 0,0 Z" /></g><path
           id="path58"
           style="fill:#6f4a9e;fill-opacity:1;fill-rule:nonzero;stroke:#ffffff;stroke-width:1.42829393;stroke-miterlimit:4;stroke-dasharray:none;stroke-opacity:1"
           d="M 294.578,389.126 303.894,389.126 303.894,398.832 294.578,398.832 294.578,389.126 Z" /></g></g><circle
       transform="scale(1,-1)"
       r="5.9109335"
       cy="-767.37231"
       cx="309.74182"
       id="path4186"
       style="opacity:1;fill:none;fill-opacity:1;stroke:#ffffff;stroke-width:1.6;stroke-linejoin:round;stroke-miterlimit:4;stroke-dasharray:none;stroke-dashoffset:0;stroke-opacity:1" /><text
       transform="scale(1,-1)"
       id="text4188"
       y="-426.66104"
       x="557.89526"
       style="font-style:normal;font-variant:normal;font-weight:normal;font-stretch:normal;font-size:16px;line-height:125%;font-family:'Source Code Pro';-inkscape-font-specification:'Source Code Pro, Normal';text-align:start;letter-spacing:0px;word-spacing:0px;writing-mode:lr-tb;text-anchor:start;fill:#000000;fill-opacity:1;stroke:none;stroke-width:1.6;stroke-linecap:butt;stroke-linejoin:miter;stroke-opacity:1;stroke-miterlimit:4;stroke-dasharray:none"
       xml:space="preserve"><tspan
         y="-426.66104"
         x="557.89526"
         id="tspan4192"
         style="stroke-width:1.6;stroke-miterlimit:4;stroke-dasharray:none" /></text>
<text
       transform="scale(1,-1)"
       id="text4194"
       y="-431.20001"
       x="558.40002"
       style="font-style:normal;font-weight:normal;font-size:32px;line-height:125%;font-family:Sans;letter-spacing:0px;word-spacing:0px;fill:#000000;fill-opacity:1;stroke:none;stroke-width:1.6;stroke-linecap:butt;stroke-linejoin:miter;stroke-opacity:1;stroke-miterlimit:4;stroke-dasharray:none"
       xml:space="preserve"><tspan
         y="-431.20001"
         x="558.40002"
         id="tspan4196"
         style="stroke-width:1.6;stroke-miterlimit:4;stroke-dasharray:none" /></text>
<text
       transform="scale(1,-1)"
       id="text4198"
       y="-763.50317"
       x="306.06384"
       style="font-style:normal;font-variant:normal;font-weight:normal;font-stretch:normal;font-size:12px;line-height:125%;font-family:'Source Code Pro';-inkscape-font-specification:'Source Code Pro, Normal';text-align:start;letter-spacing:0px;word-spacing:0px;writing-mode:lr-tb;text-anchor:start;fill:#ffffff;fill-opacity:1;stroke:none;stroke-width:1.6;stroke-linecap:butt;stroke-linejoin:miter;stroke-opacity:1;stroke-miterlimit:4;stroke-dasharray:none;"
       xml:space="preserve"><tspan
         y="-763.50317"
         x="306.06384"
         id="tspan4200"
         style="stroke-width:1.6;stroke-miterlimit:4;stroke-dasharray:none;stroke:none;stroke-opacity:1;fill:#ffffff;fill-opacity:1;">R</tspan></text>
</g></svg>